<mxfile host="app.diagrams.net" agent="Mozilla/5.0 (X11; Linux x86_64; rv:139.0) Gecko/20100101 Firefox/139.0" version="27.1.6">
  <diagram name="Page-1" id="NuoDkjtGp1NkV1lZTG0h">
    <mxGraphModel dx="1384" dy="1299" grid="1" gridSize="10" guides="1" tooltips="1" connect="1" arrows="1" fold="1" page="0" pageScale="1" pageWidth="850" pageHeight="1100" background="none" math="0" shadow="0">
      <root>
        <mxCell id="0" />
        <mxCell id="1" parent="0" />
        <mxCell id="t41M_tGKr7hV4QFFiCIM-78" value="&lt;h1&gt;App&lt;/h1&gt;" style="rounded=1;whiteSpace=wrap;html=1;verticalAlign=top;strokeWidth=3;movable=1;resizable=1;rotatable=1;deletable=1;editable=1;locked=0;connectable=1;fillColor=light-dark(#76608A,#7C4DB3);fontColor=light-dark(#FFFFFF,#FFFFFF);strokeColor=#432D57;opacity=50;" parent="1" vertex="1">
          <mxGeometry x="-110" y="40" width="820" height="330" as="geometry" />
        </mxCell>
        <mxCell id="t41M_tGKr7hV4QFFiCIM-86" style="edgeStyle=orthogonalEdgeStyle;rounded=0;orthogonalLoop=1;jettySize=auto;html=1;exitX=0.5;exitY=1;exitDx=0;exitDy=0;exitPerimeter=0;entryX=0.5;entryY=0;entryDx=0;entryDy=0;" parent="1" source="t41M_tGKr7hV4QFFiCIM-2" target="t41M_tGKr7hV4QFFiCIM-78" edge="1">
          <mxGeometry relative="1" as="geometry" />
        </mxCell>
        <mxCell id="t41M_tGKr7hV4QFFiCIM-2" value="&lt;div&gt;&lt;font style=&quot;font-size: 20px;&quot;&gt;&lt;b&gt;App&lt;/b&gt;&lt;/font&gt;&lt;/div&gt;" style="rounded=1;whiteSpace=wrap;html=1;points=[[0,0,0,0,0],[0,0.25,0,0,0],[0,0.5,0,0,0],[0,0.75,0,0,0],[0,1,0,0,0],[0.25,0,0,0,0],[0.25,1,0,0,0],[0.5,0,0,0,0],[0.5,1,0,0,0],[0.75,0,0,0,0],[0.75,1,0,0,0],[1,0,0,0,0],[1,0.25,0,0,0],[1,0.5,0,0,0],[1,0.75,0,0,0],[1,1,0,0,0]];" parent="1" vertex="1">
          <mxGeometry y="-90" width="600" height="80" as="geometry" />
        </mxCell>
        <mxCell id="t41M_tGKr7hV4QFFiCIM-3" value="&lt;div&gt;&lt;b&gt;input&lt;/b&gt;&lt;/div&gt;" style="rounded=1;whiteSpace=wrap;html=1;fillColor=light-dark(#A20025,#FFBA5E);fontColor=light-dark(#FFFFFF,#FFFFFF);strokeColor=#6F0000;opacity=60;" parent="1" vertex="1">
          <mxGeometry x="-100" y="120" width="120" height="40" as="geometry" />
        </mxCell>
        <mxCell id="t41M_tGKr7hV4QFFiCIM-82" style="edgeStyle=orthogonalEdgeStyle;rounded=0;orthogonalLoop=1;jettySize=auto;html=1;exitX=0.5;exitY=1;exitDx=0;exitDy=0;entryX=0.5;entryY=0;entryDx=0;entryDy=0;" parent="1" source="t41M_tGKr7hV4QFFiCIM-4" target="t41M_tGKr7hV4QFFiCIM-80" edge="1">
          <mxGeometry relative="1" as="geometry" />
        </mxCell>
        <mxCell id="t41M_tGKr7hV4QFFiCIM-4" value="UIHandler" style="rounded=1;whiteSpace=wrap;html=1;" parent="1" vertex="1">
          <mxGeometry x="30" y="120" width="490" height="40" as="geometry" />
        </mxCell>
        <mxCell id="t41M_tGKr7hV4QFFiCIM-70" value="&amp;nbsp;" style="text;whiteSpace=wrap;html=1;" parent="1" vertex="1">
          <mxGeometry x="280" y="230" width="40" height="40" as="geometry" />
        </mxCell>
        <mxCell id="adSUgp-cQPvd6IykCZtN-1" value="Terminal" style="rounded=1;whiteSpace=wrap;html=1;" vertex="1" parent="1">
          <mxGeometry x="540" y="120" width="140" height="40" as="geometry" />
        </mxCell>
        <mxCell id="t41M_tGKr7hV4QFFiCIM-80" value="&lt;b&gt;UI&lt;/b&gt;" style="rounded=1;whiteSpace=wrap;html=1;fillColor=light-dark(#A20025,#FF4D4D);fontColor=light-dark(#FFFFFF,#FFFFFF);strokeColor=light-dark(#6F0000,#FF6E6E);opacity=60;verticalAlign=top;" parent="1" vertex="1">
          <mxGeometry x="30" y="190" width="490" height="120" as="geometry" />
        </mxCell>
        <mxCell id="t41M_tGKr7hV4QFFiCIM-71" value="&lt;b&gt;rendering&lt;/b&gt;" style="rounded=1;whiteSpace=wrap;html=1;fillColor=light-dark(#0050EF,#15156A);fontColor=light-dark(#FFFFFF,#FFFFFF);strokeColor=#001DBC;verticalAlign=top;opacity=90;" parent="1" vertex="1">
          <mxGeometry x="230" y="220" width="120" height="30" as="geometry" />
        </mxCell>
        <mxCell id="t41M_tGKr7hV4QFFiCIM-85" value="" style="group" parent="1" vertex="1" connectable="0">
          <mxGeometry x="40" y="220" width="180" height="80" as="geometry" />
        </mxCell>
        <mxCell id="t41M_tGKr7hV4QFFiCIM-83" value="&lt;b&gt;renderables&lt;/b&gt;" style="rounded=1;whiteSpace=wrap;html=1;fillColor=light-dark(#008A00,#184618);fontColor=light-dark(#FFFFFF,#FFFFFF);strokeColor=#005700;verticalAlign=top;opacity=90;" parent="t41M_tGKr7hV4QFFiCIM-85" vertex="1">
          <mxGeometry width="180" height="80" as="geometry" />
        </mxCell>
        <mxCell id="t41M_tGKr7hV4QFFiCIM-56" value="TextWindow" style="rounded=1;whiteSpace=wrap;html=1;" parent="t41M_tGKr7hV4QFFiCIM-85" vertex="1">
          <mxGeometry x="9.473684210526315" y="35" width="75.78947368421052" height="30" as="geometry" />
        </mxCell>
        <mxCell id="t41M_tGKr7hV4QFFiCIM-57" value="Ribbon" style="rounded=1;whiteSpace=wrap;html=1;" parent="t41M_tGKr7hV4QFFiCIM-85" vertex="1">
          <mxGeometry x="94.73684210526315" y="35" width="75.78947368421052" height="30" as="geometry" />
        </mxCell>
        <mxCell id="adSUgp-cQPvd6IykCZtN-2" value="&lt;b&gt;RenderElement&lt;/b&gt;" style="rounded=1;whiteSpace=wrap;html=1;verticalAlign=top;" vertex="1" parent="1">
          <mxGeometry x="370" y="220" width="110" height="30" as="geometry" />
        </mxCell>
        <mxCell id="adSUgp-cQPvd6IykCZtN-3" value="" style="group" vertex="1" connectable="0" parent="1">
          <mxGeometry x="760" y="40" width="820" height="330" as="geometry" />
        </mxCell>
        <mxCell id="t41M_tGKr7hV4QFFiCIM-15" value="&lt;h1&gt;lib&lt;/h1&gt;" style="rounded=1;whiteSpace=wrap;html=1;verticalAlign=top;strokeWidth=3;movable=1;resizable=1;rotatable=1;deletable=1;editable=1;locked=0;connectable=1;fillColor=light-dark(#FFFFFF,#980F51);opacity=50;fillStyle=solid;glass=0;shadow=0;" parent="adSUgp-cQPvd6IykCZtN-3" vertex="1">
          <mxGeometry width="820" height="330" as="geometry" />
        </mxCell>
        <mxCell id="t41M_tGKr7hV4QFFiCIM-73" value="&lt;h2 align=&quot;center&quot;&gt;&lt;span&gt;types&lt;/span&gt;&lt;/h2&gt;" style="rounded=1;whiteSpace=wrap;html=1;fillColor=#a20025;fontColor=default;strokeColor=#6F0000;opacity=50;align=center;verticalAlign=top;spacingTop=-7;" parent="adSUgp-cQPvd6IykCZtN-3" vertex="1">
          <mxGeometry x="20" y="110" width="270" height="143.00000000000003" as="geometry" />
        </mxCell>
        <mxCell id="t41M_tGKr7hV4QFFiCIM-12" value="&lt;div&gt;Signal&lt;/div&gt;" style="rounded=1;whiteSpace=wrap;html=1;" parent="adSUgp-cQPvd6IykCZtN-3" vertex="1">
          <mxGeometry x="30" y="165" width="120" height="66" as="geometry" />
        </mxCell>
        <mxCell id="t41M_tGKr7hV4QFFiCIM-14" value="Vec2" style="rounded=1;whiteSpace=wrap;html=1;" parent="adSUgp-cQPvd6IykCZtN-3" vertex="1">
          <mxGeometry x="160" y="165" width="120" height="66" as="geometry" />
        </mxCell>
        <mxCell id="t41M_tGKr7hV4QFFiCIM-77" value="&lt;h2&gt;input&lt;/h2&gt;" style="rounded=1;whiteSpace=wrap;html=1;fillColor=#008a00;fontColor=light-dark(#FFFFFF,#D4D4D4);strokeColor=#005700;opacity=60;align=center;verticalAlign=top;spacingTop=-7;" parent="adSUgp-cQPvd6IykCZtN-3" vertex="1">
          <mxGeometry x="500" y="110" width="280" height="143.00000000000003" as="geometry" />
        </mxCell>
        <mxCell id="t41M_tGKr7hV4QFFiCIM-76" value="&lt;h2 align=&quot;center&quot;&gt;&lt;span&gt;iterfaces&lt;/span&gt;&lt;/h2&gt;" style="rounded=1;whiteSpace=wrap;html=1;fillColor=#0050ef;fontColor=light-dark(#FFFFFF,#FFFFFF);strokeColor=#001DBC;opacity=60;align=center;verticalAlign=top;spacingTop=-7;" parent="adSUgp-cQPvd6IykCZtN-3" vertex="1">
          <mxGeometry x="300" y="110" width="190" height="143.00000000000003" as="geometry" />
        </mxCell>
        <mxCell id="t41M_tGKr7hV4QFFiCIM-10" value="&lt;div&gt;Renderable&lt;/div&gt;" style="rounded=1;whiteSpace=wrap;html=1;" parent="adSUgp-cQPvd6IykCZtN-3" vertex="1">
          <mxGeometry x="330" y="165" width="135" height="66" as="geometry" />
        </mxCell>
        <mxCell id="t41M_tGKr7hV4QFFiCIM-47" value="ControlSequence" style="rounded=1;whiteSpace=wrap;html=1;" parent="adSUgp-cQPvd6IykCZtN-3" vertex="1">
          <mxGeometry x="510" y="165" width="120" height="66" as="geometry" />
        </mxCell>
        <mxCell id="t41M_tGKr7hV4QFFiCIM-48" value="&lt;div&gt;InputEvent&lt;/div&gt;" style="rounded=1;whiteSpace=wrap;html=1;" parent="adSUgp-cQPvd6IykCZtN-3" vertex="1">
          <mxGeometry x="640" y="165" width="130" height="66" as="geometry" />
        </mxCell>
      </root>
    </mxGraphModel>
  </diagram>
</mxfile>
